<mxfile host="app.diagrams.net" modified="2024-06-21T19:04:05.384Z" agent="Mozilla/5.0 (Windows NT 10.0; Win64; x64) AppleWebKit/537.36 (KHTML, like Gecko) Chrome/126.0.0.0 Safari/537.36" etag="BIRzAz619-Ks5x8usYx5" version="24.5.5" type="device">
  <diagram name="Page-1" id="wuWV44TYUkA7z9o62m9-">
    <mxGraphModel dx="1438" dy="661" grid="1" gridSize="10" guides="1" tooltips="1" connect="1" arrows="1" fold="1" page="1" pageScale="1" pageWidth="827" pageHeight="1169" math="0" shadow="0">
      <root>
        <mxCell id="0" />
        <mxCell id="1" parent="0" />
        <mxCell id="2" value="Korisnik" style="shape=rectangle;whiteSpace=wrap;html=1;" vertex="1" parent="1">
          <mxGeometry x="140" y="200" width="100" height="60" as="geometry" />
        </mxCell>
        <mxCell id="3" value="Korisničko ime" style="ellipse;whiteSpace=wrap;html=1;" vertex="1" parent="1">
          <mxGeometry x="10" y="160" width="80" height="40" as="geometry" />
        </mxCell>
        <mxCell id="4" value="Email" style="ellipse;whiteSpace=wrap;html=1;" vertex="1" parent="1">
          <mxGeometry x="10" y="210" width="80" height="40" as="geometry" />
        </mxCell>
        <mxCell id="5" value="Šifra" style="ellipse;whiteSpace=wrap;html=1;" vertex="1" parent="1">
          <mxGeometry x="10" y="260" width="80" height="40" as="geometry" />
        </mxCell>
        <mxCell id="6" style="edgeStyle=orthogonalEdgeStyle;rounded=0;orthogonalLoop=1;jettySize=auto;" edge="1" parent="1" source="3" target="2">
          <mxGeometry relative="1" as="geometry" />
        </mxCell>
        <mxCell id="7" style="edgeStyle=orthogonalEdgeStyle;rounded=0;orthogonalLoop=1;jettySize=auto;" edge="1" parent="1" source="4" target="2">
          <mxGeometry relative="1" as="geometry" />
        </mxCell>
        <mxCell id="8" style="edgeStyle=orthogonalEdgeStyle;rounded=0;orthogonalLoop=1;jettySize=auto;" edge="1" parent="1" source="5" target="2">
          <mxGeometry relative="1" as="geometry" />
        </mxCell>
        <mxCell id="9" value="Globalni Provider Kvote" style="shape=rectangle;whiteSpace=wrap;html=1;" vertex="1" parent="1">
          <mxGeometry x="860" y="70" width="100" height="60" as="geometry" />
        </mxCell>
        <mxCell id="10" value="Šifra" style="ellipse;whiteSpace=wrap;html=1;" vertex="1" parent="1">
          <mxGeometry x="680" y="60" width="80" height="40" as="geometry" />
        </mxCell>
        <mxCell id="11" value="Naziv" style="ellipse;whiteSpace=wrap;html=1;" vertex="1" parent="1">
          <mxGeometry x="680" y="110" width="80" height="40" as="geometry" />
        </mxCell>
        <mxCell id="12" style="edgeStyle=orthogonalEdgeStyle;rounded=0;orthogonalLoop=1;jettySize=auto;" edge="1" parent="1" source="10" target="9">
          <mxGeometry relative="1" as="geometry" />
        </mxCell>
        <mxCell id="13" style="edgeStyle=orthogonalEdgeStyle;rounded=0;orthogonalLoop=1;jettySize=auto;" edge="1" parent="1" source="11" target="9">
          <mxGeometry relative="1" as="geometry" />
        </mxCell>
        <mxCell id="14" value="Kvote" style="shape=rectangle;whiteSpace=wrap;html=1;" vertex="1" parent="1">
          <mxGeometry x="580" y="260" width="100" height="60" as="geometry" />
        </mxCell>
        <mxCell id="15" value="Šifra" style="ellipse;whiteSpace=wrap;html=1;" vertex="1" parent="1">
          <mxGeometry x="730" y="220" width="80" height="40" as="geometry" />
        </mxCell>
        <mxCell id="16" value="Naziv" style="ellipse;whiteSpace=wrap;html=1;" vertex="1" parent="1">
          <mxGeometry x="730" y="270" width="80" height="40" as="geometry" />
        </mxCell>
        <mxCell id="17" value="Iznos" style="ellipse;whiteSpace=wrap;html=1;" vertex="1" parent="1">
          <mxGeometry x="730" y="320" width="80" height="40" as="geometry" />
        </mxCell>
        <mxCell id="18" style="edgeStyle=orthogonalEdgeStyle;rounded=0;orthogonalLoop=1;jettySize=auto;" edge="1" parent="1" source="15" target="14">
          <mxGeometry relative="1" as="geometry" />
        </mxCell>
        <mxCell id="19" style="edgeStyle=orthogonalEdgeStyle;rounded=0;orthogonalLoop=1;jettySize=auto;" edge="1" parent="1" source="16" target="14">
          <mxGeometry relative="1" as="geometry" />
        </mxCell>
        <mxCell id="20" style="edgeStyle=orthogonalEdgeStyle;rounded=0;orthogonalLoop=1;jettySize=auto;" edge="1" parent="1" source="17" target="14">
          <mxGeometry relative="1" as="geometry" />
        </mxCell>
        <mxCell id="21" value="Oklade" style="shape=rectangle;whiteSpace=wrap;html=1;" vertex="1" parent="1">
          <mxGeometry x="990" y="170" width="100" height="60" as="geometry" />
        </mxCell>
        <mxCell id="22" value="Šifra" style="ellipse;whiteSpace=wrap;html=1;" vertex="1" parent="1">
          <mxGeometry x="1210" y="180" width="80" height="40" as="geometry" />
        </mxCell>
        <mxCell id="23" value="Naziv" style="ellipse;whiteSpace=wrap;html=1;" vertex="1" parent="1">
          <mxGeometry x="1210" y="130" width="80" height="40" as="geometry" />
        </mxCell>
        <mxCell id="24" value="Iznos" style="ellipse;whiteSpace=wrap;html=1;" vertex="1" parent="1">
          <mxGeometry x="1210" y="230" width="80" height="40" as="geometry" />
        </mxCell>
        <mxCell id="25" style="edgeStyle=orthogonalEdgeStyle;rounded=0;orthogonalLoop=1;jettySize=auto;" edge="1" parent="1" source="22" target="21">
          <mxGeometry relative="1" as="geometry" />
        </mxCell>
        <mxCell id="26" style="edgeStyle=orthogonalEdgeStyle;rounded=0;orthogonalLoop=1;jettySize=auto;" edge="1" parent="1" source="23" target="21">
          <mxGeometry relative="1" as="geometry" />
        </mxCell>
        <mxCell id="27" style="edgeStyle=orthogonalEdgeStyle;rounded=0;orthogonalLoop=1;jettySize=auto;" edge="1" parent="1" source="24" target="21">
          <mxGeometry relative="1" as="geometry" />
        </mxCell>
        <mxCell id="28" value="Povijest oklada" style="shape=rectangle;whiteSpace=wrap;html=1;" vertex="1" parent="1">
          <mxGeometry x="990" y="575" width="100" height="60" as="geometry" />
        </mxCell>
        <mxCell id="29" value="Datum" style="ellipse;whiteSpace=wrap;html=1;" vertex="1" parent="1">
          <mxGeometry x="1190" y="550" width="80" height="40" as="geometry" />
        </mxCell>
        <mxCell id="30" value="Sport" style="ellipse;whiteSpace=wrap;html=1;" vertex="1" parent="1">
          <mxGeometry x="1190" y="630" width="80" height="40" as="geometry" />
        </mxCell>
        <mxCell id="31" style="edgeStyle=orthogonalEdgeStyle;rounded=0;orthogonalLoop=1;jettySize=auto;" edge="1" parent="1" source="29" target="28">
          <mxGeometry relative="1" as="geometry" />
        </mxCell>
        <mxCell id="32" style="edgeStyle=orthogonalEdgeStyle;rounded=0;orthogonalLoop=1;jettySize=auto;" edge="1" parent="1" source="30" target="28">
          <mxGeometry relative="1" as="geometry" />
        </mxCell>
        <mxCell id="33" value="Admin" style="shape=rectangle;whiteSpace=wrap;html=1;" vertex="1" parent="1">
          <mxGeometry x="140" y="600" width="100" height="60" as="geometry" />
        </mxCell>
        <mxCell id="34" value="Šifra" style="ellipse;whiteSpace=wrap;html=1;" vertex="1" parent="1">
          <mxGeometry x="20" y="570" width="80" height="40" as="geometry" />
        </mxCell>
        <mxCell id="35" value="Ime" style="ellipse;whiteSpace=wrap;html=1;" vertex="1" parent="1">
          <mxGeometry x="20" y="640" width="80" height="40" as="geometry" />
        </mxCell>
        <mxCell id="36" style="edgeStyle=orthogonalEdgeStyle;rounded=0;orthogonalLoop=1;jettySize=auto;" edge="1" parent="1" source="34" target="33">
          <mxGeometry relative="1" as="geometry" />
        </mxCell>
        <mxCell id="37" style="edgeStyle=orthogonalEdgeStyle;rounded=0;orthogonalLoop=1;jettySize=auto;" edge="1" parent="1" source="35" target="33">
          <mxGeometry relative="1" as="geometry" />
        </mxCell>
        <mxCell id="38" value="Podrška" style="shape=rectangle;whiteSpace=wrap;html=1;" vertex="1" parent="1">
          <mxGeometry x="700" y="490" width="100" height="60" as="geometry" />
        </mxCell>
        <mxCell id="39" value="Šifra" style="ellipse;whiteSpace=wrap;html=1;" vertex="1" parent="1">
          <mxGeometry x="560" y="570" width="80" height="40" as="geometry" />
        </mxCell>
        <mxCell id="40" value="Ime" style="ellipse;whiteSpace=wrap;html=1;" vertex="1" parent="1">
          <mxGeometry x="560" y="640" width="80" height="40" as="geometry" />
        </mxCell>
        <mxCell id="41" style="edgeStyle=orthogonalEdgeStyle;rounded=0;orthogonalLoop=1;jettySize=auto;" edge="1" parent="1" source="39" target="38">
          <mxGeometry relative="1" as="geometry" />
        </mxCell>
        <mxCell id="42" style="edgeStyle=orthogonalEdgeStyle;rounded=0;orthogonalLoop=1;jettySize=auto;" edge="1" parent="1" source="40" target="38">
          <mxGeometry relative="1" as="geometry" />
        </mxCell>
        <mxCell id="43" value="Odigrava" style="shape=rhombus;whiteSpace=wrap;html=1;" vertex="1" parent="1">
          <mxGeometry x="300" y="200" width="60" height="60" as="geometry" />
        </mxCell>
        <mxCell id="44" style="edgeStyle=orthogonalEdgeStyle;rounded=0;orthogonalLoop=1;jettySize=auto;" edge="1" parent="1" source="2" target="43">
          <mxGeometry relative="1" as="geometry" />
        </mxCell>
        <mxCell id="45" style="edgeStyle=orthogonalEdgeStyle;rounded=0;orthogonalLoop=1;jettySize=auto;" edge="1" parent="1" source="43" target="14">
          <mxGeometry relative="1" as="geometry" />
        </mxCell>
        <mxCell id="46" value="Ima" style="shape=rhombus;whiteSpace=wrap;html=1;" vertex="1" parent="1">
          <mxGeometry x="880" y="360" width="60" height="60" as="geometry" />
        </mxCell>
        <mxCell id="47" style="edgeStyle=orthogonalEdgeStyle;rounded=0;orthogonalLoop=1;jettySize=auto;" edge="1" parent="1" source="9" target="46">
          <mxGeometry relative="1" as="geometry" />
        </mxCell>
        <mxCell id="48" style="edgeStyle=orthogonalEdgeStyle;rounded=0;orthogonalLoop=1;jettySize=auto;" edge="1" parent="1" source="46" target="21">
          <mxGeometry relative="1" as="geometry" />
        </mxCell>
        <mxCell id="49" value="Upravlja" style="shape=rhombus;whiteSpace=wrap;html=1;" vertex="1" parent="1">
          <mxGeometry x="160" y="440" width="60" height="60" as="geometry" />
        </mxCell>
        <mxCell id="50" style="edgeStyle=orthogonalEdgeStyle;rounded=0;orthogonalLoop=1;jettySize=auto;" edge="1" parent="1" source="33" target="49">
          <mxGeometry relative="1" as="geometry" />
        </mxCell>
        <mxCell id="51" style="edgeStyle=orthogonalEdgeStyle;rounded=0;orthogonalLoop=1;jettySize=auto;" edge="1" parent="1" source="49" target="2">
          <mxGeometry relative="1" as="geometry" />
        </mxCell>
        <mxCell id="52" value="Podržava" style="shape=rhombus;whiteSpace=wrap;html=1;" vertex="1" parent="1">
          <mxGeometry x="490" y="380" width="60" height="60" as="geometry" />
        </mxCell>
        <mxCell id="53" style="edgeStyle=orthogonalEdgeStyle;rounded=0;orthogonalLoop=1;jettySize=auto;" edge="1" parent="1" source="38" target="52">
          <mxGeometry relative="1" as="geometry" />
        </mxCell>
        <mxCell id="54" style="edgeStyle=orthogonalEdgeStyle;rounded=0;orthogonalLoop=1;jettySize=auto;" edge="1" parent="1" source="52" target="2">
          <mxGeometry relative="1" as="geometry" />
        </mxCell>
        <mxCell id="55" value="Povijest" style="shape=rhombus;whiteSpace=wrap;html=1;" vertex="1" parent="1">
          <mxGeometry x="1010" y="480" width="60" height="60" as="geometry" />
        </mxCell>
        <mxCell id="56" style="edgeStyle=orthogonalEdgeStyle;rounded=0;orthogonalLoop=1;jettySize=auto;" edge="1" parent="1" source="21" target="55">
          <mxGeometry relative="1" as="geometry" />
        </mxCell>
        <mxCell id="57" style="edgeStyle=orthogonalEdgeStyle;rounded=0;orthogonalLoop=1;jettySize=auto;" edge="1" parent="1" source="55" target="28">
          <mxGeometry relative="1" as="geometry" />
        </mxCell>
        <mxCell id="xw_EdP3e7NyAaML1ybap-61" value="1" style="text;html=1;align=center;verticalAlign=middle;whiteSpace=wrap;rounded=0;" vertex="1" parent="1">
          <mxGeometry x="130" y="560" width="60" height="30" as="geometry" />
        </mxCell>
        <mxCell id="xw_EdP3e7NyAaML1ybap-62" value="N" style="text;html=1;align=center;verticalAlign=middle;whiteSpace=wrap;rounded=0;" vertex="1" parent="1">
          <mxGeometry x="190" y="265" width="60" height="30" as="geometry" />
        </mxCell>
        <mxCell id="xw_EdP3e7NyAaML1ybap-63" value="1" style="text;html=1;align=center;verticalAlign=middle;whiteSpace=wrap;rounded=0;" vertex="1" parent="1">
          <mxGeometry x="240" y="185" width="60" height="30" as="geometry" />
        </mxCell>
        <mxCell id="xw_EdP3e7NyAaML1ybap-64" value="N" style="text;html=1;align=center;verticalAlign=middle;whiteSpace=wrap;rounded=0;" vertex="1" parent="1">
          <mxGeometry x="510" y="260" width="60" height="30" as="geometry" />
        </mxCell>
        <mxCell id="xw_EdP3e7NyAaML1ybap-67" style="edgeStyle=orthogonalEdgeStyle;rounded=0;orthogonalLoop=1;jettySize=auto;html=1;exitX=1;exitY=0.5;exitDx=0;exitDy=0;entryX=0.5;entryY=1;entryDx=0;entryDy=0;" edge="1" parent="1" source="xw_EdP3e7NyAaML1ybap-65" target="9">
          <mxGeometry relative="1" as="geometry" />
        </mxCell>
        <mxCell id="xw_EdP3e7NyAaML1ybap-68" value="" style="edgeStyle=orthogonalEdgeStyle;rounded=0;orthogonalLoop=1;jettySize=auto;html=1;" edge="1" parent="1" source="xw_EdP3e7NyAaML1ybap-65" target="14">
          <mxGeometry relative="1" as="geometry" />
        </mxCell>
        <mxCell id="xw_EdP3e7NyAaML1ybap-65" value="Ima" style="shape=rhombus;whiteSpace=wrap;html=1;" vertex="1" parent="1">
          <mxGeometry x="600" y="155" width="60" height="60" as="geometry" />
        </mxCell>
        <mxCell id="xw_EdP3e7NyAaML1ybap-69" value="1" style="text;html=1;align=center;verticalAlign=middle;whiteSpace=wrap;rounded=0;" vertex="1" parent="1">
          <mxGeometry x="850" y="135" width="60" height="30" as="geometry" />
        </mxCell>
        <mxCell id="xw_EdP3e7NyAaML1ybap-70" value="N" style="text;html=1;align=center;verticalAlign=middle;whiteSpace=wrap;rounded=0;" vertex="1" parent="1">
          <mxGeometry x="560" y="220" width="60" height="30" as="geometry" />
        </mxCell>
        <mxCell id="xw_EdP3e7NyAaML1ybap-71" value="1" style="text;html=1;align=center;verticalAlign=middle;whiteSpace=wrap;rounded=0;" vertex="1" parent="1">
          <mxGeometry x="640" y="480" width="60" height="30" as="geometry" />
        </mxCell>
        <mxCell id="xw_EdP3e7NyAaML1ybap-72" value="N" style="text;html=1;align=center;verticalAlign=middle;whiteSpace=wrap;rounded=0;" vertex="1" parent="1">
          <mxGeometry x="120" y="265" width="60" height="30" as="geometry" />
        </mxCell>
        <mxCell id="xw_EdP3e7NyAaML1ybap-73" value="1" style="text;html=1;align=center;verticalAlign=middle;whiteSpace=wrap;rounded=0;" vertex="1" parent="1">
          <mxGeometry x="910" y="135" width="60" height="30" as="geometry" />
        </mxCell>
        <mxCell id="xw_EdP3e7NyAaML1ybap-74" value="N" style="text;html=1;align=center;verticalAlign=middle;whiteSpace=wrap;rounded=0;" vertex="1" parent="1">
          <mxGeometry x="980" y="240" width="60" height="30" as="geometry" />
        </mxCell>
        <mxCell id="xw_EdP3e7NyAaML1ybap-75" value="N" style="text;html=1;align=center;verticalAlign=middle;whiteSpace=wrap;rounded=0;" vertex="1" parent="1">
          <mxGeometry x="1040" y="240" width="60" height="30" as="geometry" />
        </mxCell>
        <mxCell id="xw_EdP3e7NyAaML1ybap-76" value="1" style="text;html=1;align=center;verticalAlign=middle;whiteSpace=wrap;rounded=0;" vertex="1" parent="1">
          <mxGeometry x="1040" y="540" width="60" height="30" as="geometry" />
        </mxCell>
      </root>
    </mxGraphModel>
  </diagram>
</mxfile>
